/* XPM */ 
static char * logo48_xpm[] = {
"48 48 182 2",
"  	c None",
"! 	c black",
"# 	c #B8B89C",
"$ 	c #CAC8B4",
"% 	c #D6D4C6",
"& 	c #D8D6C6",
"' 	c #D8D6C8",
"( 	c #D8D8C8",
") 	c #D8D6CA",
"* 	c #D8D8CC",
"+ 	c #DCD8CC",
", 	c #DADACC",
"- 	c #DADACE",
". 	c #DCDCD0",
"0 	c #DEDACE",
"1 	c #DEDAD0",
"2 	c #DEDCD0",
"3 	c #DEDCD2",
"4 	c #E0DCD4",
"5 	c #E0DED2",
"6 	c #E0DED4",
"7 	c #E0E0D4",
"8 	c #E2E0D6",
"9 	c #E4E0D8",
": 	c #E2E2D6",
"; 	c #E2E2D8",
"< 	c #E0E0D8",
"= 	c #DEDED8",
"> 	c #DCDCD8",
"? 	c #D0D2CC",
"@ 	c #C0C2BE",
"A 	c #B8B69C",
"B 	c #ECECE8",
"C 	c #FEFEFC",
"D 	c #FAFAFA",
"E 	c #EEF0F2",
"F 	c #FEFEFE",
"G 	c white",
"H 	c #F8F8F8",
"I 	c #F6F4F2",
"J 	c #D0CEBC",
"K 	c #FCFCFC",
"L 	c #D6DAE0",
"M 	c #74829A",
"N 	c #62728E",
"O 	c #6A7A94",
"P 	c #EAECEE",
"Q 	c #BEBAA2",
"R 	c #A8A484",
"S 	c #AEAA8C",
"T 	c #DAD8CA",
"U 	c #DADCDA",
"V 	c #525452",
"W 	c #647490",
"X 	c #BCC2CE",
"Y 	c #E0DCD0",
"Z 	c #ACA888",
"[ 	c #F0EEEA",
"] 	c #DEE0DE",
"^ 	c #4C4E4C",
"_ 	c #667690",
"` 	c #8C98AC",
"a 	c #B0AC90",
"b 	c #AAA688",
"c 	c #4C4C4C",
"d 	c #F0F0F4",
"e 	c #667892",
"f 	c #7C8CA0",
"g 	c #EEF2F2",
"h 	c #C2BEA8",
"i 	c #687894",
"j 	c #74849C",
"k 	c #E0E4E8",
"l 	c #D0CEBE",
"m 	c #D8D8CA",
"n 	c #DCDEDE",
"o 	c #484C4C",
"p 	c #6C7C94",
"q 	c #8694A8",
"r 	c #EAECF0",
"s 	c #ACA88C",
"t 	c #DAD8CC",
"u 	c #6C7C98",
"v 	c #8894AC",
"w 	c #B0AC8C",
"x 	c #484A4C",
"y 	c #6E7E98",
"z 	c #8896AA",
"{ 	c #ECECE6",
"| 	c #B4B094",
"} 	c #AEAA8E",
"~ 	c #DADEDE",
" !	c #70809A",
"!!	c #909EB2",
"#!	c #DADCDE",
"$!	c #464A4A",
"%!	c #98A4B8",
"&!	c #ECECE4",
"'!	c #7888A0",
"(!	c #A4B0C0",
")!	c #DCDACE",
"*!	c #D8DCDC",
"+!	c #464A4C",
",!	c #808CA4",
"-!	c #ACB8C8",
".!	c #BCC4D0",
"0!	c #F4F4F8",
"1!	c #7C88A0",
"2!	c #94A0B4",
"3!	c #C0C8D4",
"4!	c #D4D4C4",
"5!	c #44484C",
"6!	c #7C8CA4",
"7!	c #CCC8B4",
"8!	c #B4B098",
"9!	c #D4D8DC",
":!	c #8494A8",
";!	c #ACB8C4",
"<!	c #CCC8B8",
"=!	c #B8B498",
">!	c #F0F4F4",
"?!	c #8C9CB0",
"@!	c #B0BCCC",
"A!	c #F8F8F4",
"B!	c #C4C0AC",
"C!	c #B8B49C",
"D!	c #8090A4",
"E!	c #98A4B6",
"F!	c #B4C0CC",
"G!	c #E0DCD2",
"H!	c #9CA8BC",
"I!	c #40444C",
"J!	c #B8C4D0",
"K!	c #F8F8F6",
"L!	c #C8C4B0",
"M!	c #BCB8A0",
"N!	c #A8B4C4",
"O!	c #ECF0F0",
"P!	c #D0D4DC",
"Q!	c #8898AC",
"R!	c #CCD4DC",
"S!	c #F0ECE8",
"T!	c #3C444C",
"U!	c #909CB0",
"V!	c #E0E4EC",
"W!	c #B4BCCC",
"X!	c #C0CCD4",
"Y!	c #C0BCA4",
"Z!	c #E8ECEC",
"[!	c #A0ACBC",
"]!	c #C0BCA8",
"^!	c #9CA8B8",
"_!	c #C8D0DC",
"`!	c #C0C0A8",
"a!	c #DCE0E8",
"b!	c #E4E4D8",
"c!	c #F4F8F8",
"d!	c #E8ECF0",
"e!	c #A0ACC0",
"f!	c #B0BCC8",
"g!	c #C4C4AC",
"h!	c #E4E4DC",
"i!	c #DADCD6",
"j!	c #CCCCB8",
"k!	c #C8C8B4",
"l!	c #DADAD6",
"m!	c #CCD4D8",
"n!	c #D8D8D4",
"o!	c #D4D8E0",
"p!	c #D0CCBC",
"q!	c #D8D4C8",
"r!	c #CCD0D8",
"s!	c #3C4048",
"t!	c #C0C0BC",
"u!	c #D8E0E4",
"v!	c #E8E8E0",
"w!	c #E8E8DC",
"x!	c #101418",
"y!	c #C0C4C0",
"z!	c #DCE0DC",
"{!	c #3C4450",
"|!	c #545854",
"  # $ % & ' ( ) ) * * + , - - . . 0 1 2 3 4 5 5 6 7 7 8 9 : ; ; ; ; < < < = > > > > ? @         ",
"A B C D E E E E E E E E E E E E E E E E E E E E E E E E E E E E E E E D F G F H I D F H @       ",
"J K L M N N N N N N N N N N N N N N N N N N N N N N N N N N N N N N O P F F K Q R S T F U V     ",
"% H M W W W W W W W W W W W W W W W W W W W W W W W W W W W W W W W X F F F Y R R R Z [ ] ^ !   ",
"& E _ _ _ _ _ _ _ _ _ _ _ _ _ _ _ _ _ _ _ _ _ _ _ _ _ _ _ _ _ _ _ ` C G F I a b b b b , ] c !   ",
"( d e e e e e e e e e e e e e e e e e e e e e e e e e e e e e e f g F G K h Z Z Z Z Z ( ] c !   ",
"( d i i i i i i i i i i i i i i i i i i i i i i i i i i i i i j k F F F l Z Z Z Z Z Z m n o !   ",
") d p p p p p p p p p p p p p p p p p p p p p p p p p p p p q r K F F 7 s s s s s s s t n o !   ",
"* d u u u u u u u u u u u u u u u u u u u u u u u u u u u v E C G F 8 w S S S S S S S t n x !   ",
"* d y y y y y y y y y y y y y y y y y y y y y y y y y y z E C F F { | } } } } } } } } + ~ x !   ",
"+ d  ! ! ! ! ! ! ! ! ! ! ! ! ! ! ! ! ! ! ! ! ! ! ! ! !!!E K G F { | a a a a a a a a a + #!$!!   ",
", d M M M M M M M M M M M M M M M M M M M M M M M M %!d C F F &!| a a a a a a a a a a , #!x !   ",
", d j j j j j j j j j j j j j j j j j j j j j j '!(!d C C F 9 | a a a a a a a a a a a )!*!+!!   ",
"- d j j j j j j j j j j j j j j j j j j j j j ,!-!d K G F ; | | | | | | | | | | | | | )!*!+!!   ",
")!d '!'!'!'!'!'!'!'!'!'!'!'!'!'!'!'!'!'!'!'!v .!0!F F K % | | | | | | | | | | | | | | . *!+!!   ",
". d 1!1!1!1!1!1!1!1!1!1!1!1!1!1!1!1!1!1!1!2!3!H K F K 4!| | | | | | | | | | | | | | | . *!5!!   ",
". d 6!6!6!6!6!6!6!6!6!6!6!6!6!6!6!6!6!6!(!3!H K G K 7!8!8!8!8!8!8!8!8!8!8!8!8!8!8!8!8!2 9!5!!   ",
"1 d 6!6!6!6!6!6!6!6!6!6!6!6!6!6!6!6!:!;!3!H C F H <!=!=!=!=!=!=!=!=!=!=!=!=!=!=!=!=!=!2 9!5!!   ",
"1 >!,!,!,!,!,!,!,!,!,!,!,!,!,!,!,!?!@!3!H C C A!B!C!C!C!C!C!C!C!C!C!C!C!C!C!C!C!C!C!C!2 9!5!!   ",
"3 >!D!D!D!D!D!D!D!D!D!D!D!D!D!D!E!F!3!H K G A!B!C!C!C!C!C!C!C!C!C!C!C!C!C!C!C!C!C!C!C!3 9!5!!   ",
"G!>!:!:!:!:!:!:!:!:!:!:!:!:!:!H!F!3!H F F A!B!A A A A A A A A A A A A A A A A A A A A 5 9!I!!   ",
"5 >!:!:!:!:!:!:!:!:!:!:!:!q (!F!J!0!F F K!L!M!M!M!M!M!M!M!M!M!M!M!M!M!M!M!M!M!M!M!M!M!5 9!I!!   ",
"5 >!v v v v v v v v v v z N!F!J!O!C G K <!M!M!M!M!M!M!M!M!M!M!M!M!M!M!M!M!M!M!M!M!M!M!7 P!I!!   ",
"6 >!Q!Q!Q!Q!Q!Q!Q!Q!Q!` N!F!F!k F F K l M!M!M!M!M!M!M!M!M!M!M!M!M!M!M!M!M!M!M!M!M!M!M!7 P!I!!   ",
"6 >!` ` ` ` ` ` ` ` ` N!F!F!R!K C F 5 Q Q Q Q Q Q Q Q Q Q Q Q Q Q Q Q Q Q Q Q Q Q Q Q 7 P!I!!   ",
"7 >!?!?!?!?!?!?!?!?!(!F!F!.!H G F S!Q Q Q Q Q Q Q Q Q Q Q Q Q Q Q Q Q Q Q Q Q Q Q Q Q 7 P!T!!   ",
"8 0!U!U!U!U!U!U!U!H!F!F!F!V!K G D L!Q Q Q Q Q Q Q Q Q Q Q Q Q Q Q Q Q Q Q Q Q Q Q Q Q 7 P!T!!   ",
"8 0!!!!!!!!!!!!!E!W!F!F!X!K F F . Y!Y!Y!Y!Y!Y!Y!Y!Y!Y!Y!Y!Y!Y!Y!Y!Y!Y!Y!Y!Y!Y!Y!Y!Y!Y!8 R!T!!   ",
": 0!2!2!2!2!2!2!-!F!F!F!Z!F F I h Y!Y!Y!Y!Y!Y!Y!Y!Y!Y!Y!Y!Y!Y!Y!Y!Y!Y!Y!Y!Y!Y!Y!Y!Y!Y!8 R!T!!   ",
"; 0!2!2!2!2!2![!F!F!F!X!K F F ( ]!]!]!]!]!]!]!]!]!]!]!]!]!]!]!]!]!]!]!]!]!]!]!]!]!]!]!8 R!T!!   ",
"; 0!E!E!E!E!E!W!F!F!F!k C F A!h h h h h h h h h h h h h h h h h h h h h h h h h h h h 9 R!T!!   ",
"; 0!%!%!%!%!(!F!F!F!J!D G F 8 h h h h h h h h h h h h h h h h h h h h h h h h h h h h ; R!T!!   ",
"; 0!^!^!^!^!-!F!F!F!_!C G F <!`!`!`!`!`!`!`!`!`!`!`!`!`!`!`!`!`!`!`!`!`!`!`!`!`!`!`!`!; R!T!!   ",
"< 0!H!H!H![!F!F!F!F!a!C G K!B!B!B!B!B!B!B!B!B!B!B!B!B!B!B!B!B!B!B!B!B!B!B!B!B!B!B!B!B!b!R!T!!   ",
"< c!H!H!H!(!F!F!F!F!d!C G &!B!B!B!B!B!B!B!B!B!B!B!B!B!B!B!B!B!B!B!B!B!B!B!B!B!B!B!B!B!b!R!T!!   ",
"< c![![![!;!F!F!F!F!D F G 5 B!B!B!B!B!B!B!B!B!B!B!B!B!B!B!B!B!B!B!B!B!B!B!B!B!B!B!B!B!b!R!T!!   ",
"> c!e!e!e!f!F!F!F!.!K F F 4!g!g!g!g!g!g!g!g!g!g!g!g!g!g!g!g!g!g!g!g!g!g!g!g!g!g!g!g!g!b!R!T!!   ",
"> c!(!(!(!W!F!F!F!3!F F F l L!L!L!L!L!L!L!L!L!L!L!L!L!L!L!L!L!L!L!L!L!L!L!L!L!L!L!L!L!h!R!T!!   ",
"> c!(!(!(!F!F!F!F!R!F F F <!L!L!L!L!L!L!L!L!L!L!L!L!L!L!L!L!L!L!L!L!L!L!L!L!L!L!L!L!L!h!R!T!!   ",
"> c!N!N!N!F!F!F!F!R!F F F <!L!L!L!L!L!L!L!L!L!L!L!L!L!L!L!L!L!L!L!L!L!L!L!L!L!L!L!L!L!h!R!T!!   ",
"i!c!N!N!N!F!F!F!F!R!G G G j!k!k!k!k!k!k!k!k!k!k!k!k!k!k!k!k!k!k!k!k!k!k!k!k!k!k!k!k!k!h!R!T!!   ",
"l!H -!;!;!F!F!F!F!R!G G G j!k!k!k!k!k!k!k!k!k!k!k!k!k!k!k!k!k!k!k!k!k!k!k!k!k!k!k!k!k![ m!T!!   ",
"n!K o!-!-!F!F!F!F!R!F G F p!$ $ $ $ $ $ $ $ $ $ $ $ $ $ $ $ $ $ $ $ $ $ $ $ $ $ $ $ q!K r!s!!   ",
"t!H K d!u!a!a!a!a!Z!F G F v!w!w!w!w!w!w!w!w!w!w!w!w!w!w!w!w!w!w!w!w!w!w!w!w!w!w!w!{ K F [!x!!   ",
"  y!z!n n n n ~ *!*!*!*!*!*!*!9!9!9!9!9!9!P!P!P!P!P!R!R!R!R!R!R!R!R!R!R!R!R!R!R!m!m!r!(!{!! !   ",
"    |!c o o x x x x +!+!+!5!5!5!5!5!5!I!I!I!I!I!T!T!T!T!T!T!T!T!T!T!T!T!T!T!T!T!T!T!s!x!! ! !   ",
"      ! ! ! ! ! ! ! ! ! ! ! ! ! ! ! ! ! ! ! ! ! ! ! ! ! ! ! ! ! ! ! ! ! ! ! ! ! ! ! ! ! ! !     ",
"                                                                                                "};